<?xml version="1.0" standalone="no"?>
<!DOCTYPE svg PUBLIC "-//W3C//DTD SVG 20010904//EN"
 "http://www.w3.org/TR/2001/REC-SVG-20010904/DTD/svg10.dtd">
<svg version="1.0" xmlns="http://www.w3.org/2000/svg"
 width="4500.000000pt" height="4500.000000pt" viewBox="0 0 4500.000000 4500.000000"
 preserveAspectRatio="xMidYMid meet">
<metadata>
Created by potrace 1.16, written by Peter Selinger 2001-2019
</metadata>
<g transform="translate(0.000000,4500.000000) scale(0.100000,-0.100000)"
fill="#000000" stroke="none">
<path d="M20890 40514 c-158 -9 -435 -26 -463 -29 -18 -2 -68 -6 -112 -10 -44
-3 -161 -15 -260 -26 -1647 -181 -3237 -718 -4565 -1542 -342 -212 -720 -478
-960 -677 -148 -122 -439 -410 -534 -530 -156 -196 -289 -422 -369 -626 -41
-104 -101 -320 -93 -333 15 -24 58 -21 99 7 177 119 393 194 797 277 523 107
757 184 1161 385 l201 100 93 0 c302 0 1269 57 2045 120 517 42 682 49 1230
55 267 3 555 10 640 15 363 25 695 76 1015 156 150 38 354 40 520 5 61 -12
151 -26 200 -29 l90 -7 0 -45 c1 -85 70 -160 180 -194 51 -16 78 -18 220 -12
130 6 175 4 229 -8 87 -21 159 -20 199 0 18 10 65 48 106 85 77 73 115 90 226
104 32 4 223 -11 515 -40 256 -26 530 -50 610 -53 l145 -7 -100 -41 c-264
-110 -543 -185 -803 -218 -81 -10 -97 -15 -100 -30 -4 -18 1 -19 69 -12 357
34 677 27 983 -20 121 -19 172 -37 208 -71 39 -38 43 -79 23 -229 -16 -115
-17 -147 -7 -250 11 -112 43 -268 64 -306 14 -27 84 -23 146 8 33 16 64 42 84
70 22 31 34 41 40 32 15 -25 8 -97 -22 -199 -52 -182 -40 -246 75 -379 66 -76
95 -133 95 -183 0 -19 -14 -91 -30 -159 -24 -97 -32 -161 -40 -308 -16 -284
-34 -363 -154 -668 -134 -340 -162 -464 -153 -687 9 -222 58 -401 209 -775
166 -409 211 -545 278 -840 54 -241 105 -427 141 -518 94 -235 206 -383 385
-505 58 -40 82 -49 139 -58 162 -23 171 -27 213 -77 135 -162 221 -348 276
-593 40 -178 56 -350 63 -651 5 -212 9 -278 18 -278 16 0 65 75 99 150 61 134
84 313 67 517 -7 75 -10 137 -8 140 5 5 66 -155 107 -281 71 -217 108 -405
175 -881 95 -678 96 -812 9 -1234 -75 -365 -75 -366 -84 -901 -9 -583 -12
-610 -136 -994 l-35 -109 17 -94 c21 -119 12 -182 -47 -338 -53 -138 -55 -200
-14 -355 27 -101 29 -115 29 -335 l1 -230 44 -130 c40 -120 43 -138 43 -230 0
-84 -7 -126 -41 -260 -23 -88 -44 -168 -47 -178 -4 -14 -15 3 -39 58 -40 91
-98 182 -160 250 l-45 50 7 -65 c16 -132 7 -307 -21 -415 -25 -96 -104 -274
-145 -325 l-20 -25 19 61 c63 205 43 444 -56 652 -26 53 -40 72 -54 72 -23 0
-23 0 -10 -98 24 -183 -42 -382 -177 -532 -29 -32 -53 -61 -53 -64 0 -3 23
-27 51 -53 75 -70 102 -129 107 -234 4 -79 1 -94 -33 -194 -66 -192 -58 -275
49 -504 98 -209 103 -240 60 -424 -31 -136 -28 -178 26 -392 63 -243 70 -360
35 -535 -28 -136 -105 -313 -134 -308 -17 3 -24 27 -46 153 -11 65 -22 96 -39
115 -44 47 -56 76 -67 161 -13 97 -22 117 -94 211 -72 95 -78 120 -69 292 l7
144 -48 102 c-47 100 -47 103 -41 172 7 70 7 70 -16 63 -31 -10 -85 -51 -98
-75 -25 -47 -22 -103 9 -201 40 -124 40 -177 1 -256 -37 -74 -57 -94 -66 -67
-4 11 -19 51 -34 89 -41 105 -54 171 -54 270 1 114 12 169 84 390 72 220 81
258 82 358 0 70 -27 224 -41 237 -3 3 -14 22 -23 43 -10 20 -22 37 -28 37 -22
0 -21 -31 1 -85 21 -50 22 -60 11 -117 -15 -81 -65 -184 -138 -283 l-58 -79
-13 44 c-32 110 -28 210 17 381 21 79 21 91 9 130 -8 24 -21 45 -30 47 -21 4
-179 -233 -208 -311 -29 -81 -27 -133 11 -230 47 -117 44 -158 -16 -276 -38
-75 -48 -106 -53 -162 -6 -64 -5 -69 14 -69 17 0 21 8 26 61 6 64 43 153 77
184 11 10 22 16 23 14 2 -2 -5 -116 -15 -254 -28 -374 -22 -458 53 -694 56
-178 72 -300 85 -654 l7 -187 -29 -63 c-27 -59 -29 -69 -29 -197 l0 -135 43
-88 c47 -99 51 -132 23 -203 -11 -27 -23 -75 -26 -106 -4 -32 -11 -58 -16 -58
-15 0 -10 107 7 150 19 47 15 55 -21 46 -41 -10 -111 -81 -136 -139 -21 -47
-23 -72 -30 -282 -4 -132 -11 -241 -18 -255 -9 -21 -10 -17 -5 23 30 235 -14
348 -156 402 -107 41 -117 66 -78 202 20 70 22 101 23 318 0 287 -3 279 136
413 52 50 102 108 117 137 24 44 27 61 27 150 0 87 -3 107 -25 150 -14 28 -32
50 -40 50 -16 0 -16 -6 -4 -86 12 -86 -39 -162 -198 -297 -83 -69 -150 -158
-168 -220 -5 -20 -17 -95 -25 -166 -17 -138 -49 -252 -93 -326 l-27 -45 -3 75
c-4 88 6 127 54 211 54 95 67 148 62 238 -3 59 -12 93 -35 142 -36 77 -87 139
-115 139 -18 0 -19 -4 -12 -37 18 -76 9 -144 -36 -278 l-44 -130 -6 -225 c-6
-207 -9 -231 -33 -305 -15 -44 -46 -115 -69 -158 -40 -72 -149 -229 -155 -223
-2 1 2 29 8 62 16 85 5 214 -27 319 -38 125 -37 198 7 345 30 103 34 128 34
240 0 122 -1 127 -34 198 -40 84 -147 196 -183 190 -19 -3 -21 -9 -19 -113 2
-133 -35 -365 -59 -365 -3 0 -26 62 -51 137 -41 127 -44 146 -44 243 0 58 2
121 5 140 4 29 2 35 -14 35 -27 0 -57 -84 -63 -175 -3 -46 3 -140 16 -240 60
-490 25 -755 -149 -1100 -73 -145 -250 -415 -258 -392 -7 21 40 227 79 347 23
69 88 220 153 355 126 259 164 365 173 481 9 115 -9 183 -90 354 -63 131 -72
158 -75 217 -4 58 -1 74 22 114 49 87 20 104 -43 24 -88 -111 -110 -235 -93
-526 18 -328 2 -394 -148 -594 -96 -128 -133 -205 -134 -275 -1 -27 23 -157
52 -288 70 -316 85 -418 79 -542 -4 -88 -11 -120 -61 -269 -31 -93 -54 -171
-52 -174 3 -3 17 3 30 12 28 18 66 22 66 6 0 -5 -14 -51 -30 -102 -29 -87 -72
-284 -85 -391 -7 -55 -20 -59 -69 -22 l-33 25 -6 -117 c-4 -65 -9 -181 -12
-258 l-6 -140 63 66 c81 85 149 199 190 319 31 94 32 99 38 335 6 200 10 249
26 294 20 57 46 83 64 65 24 -24 52 -248 54 -426 1 -194 9 -205 41 -53 13 64
15 110 10 225 -8 174 -3 200 70 372 30 70 62 155 70 190 19 78 30 265 18 296
-9 23 -17 16 -133 -110 -69 -73 -130 -134 -136 -136 -25 -6 -25 20 -1 72 36
78 92 156 197 276 109 123 162 202 186 272 l17 52 18 -23 c29 -36 25 -115 -12
-224 -37 -109 -42 -195 -16 -244 10 -18 22 -33 28 -33 5 0 25 16 45 35 42 42
57 45 43 7 -23 -60 -12 -170 30 -304 85 -266 80 -317 -48 -513 -87 -133 -97
-198 -51 -343 25 -78 26 -179 3 -230 -9 -21 -17 -31 -19 -22 -2 8 -17 110 -34
225 -40 273 -38 265 -61 265 -31 0 -52 -55 -46 -120 3 -34 0 -68 -8 -86 -7
-16 -64 -78 -126 -139 -122 -117 -211 -172 -320 -197 -46 -11 -50 -14 -46 -36
4 -19 -11 -40 -78 -109 -114 -117 -121 -114 -117 42 l3 120 -24 -29 -24 -30
-7 285 c-9 374 3 450 107 655 64 125 72 168 53 287 -21 128 -20 178 5 283 26
112 21 144 -41 270 -28 54 -50 113 -50 129 0 17 12 48 26 69 17 25 23 41 16
48 -23 23 -85 -42 -123 -128 -23 -51 -26 -107 -12 -209 6 -44 7 -149 2 -280
-10 -248 -21 -302 -107 -520 -33 -82 -63 -170 -68 -195 -4 -25 -8 -160 -8
-300 -1 -164 -5 -264 -12 -280 -9 -20 -13 36 -19 253 -6 225 -10 277 -21 277
-8 0 -39 -51 -70 -112 -52 -105 -87 -158 -105 -158 -4 0 12 36 34 81 36 69 42
91 44 152 3 81 -21 170 -48 175 -11 2 -22 -12 -34 -45 -62 -161 -214 -315
-365 -368 -38 -13 -42 -13 -36 1 3 9 18 62 34 118 25 94 27 112 23 256 -8 333
-8 332 15 375 11 22 42 79 68 126 59 110 76 206 58 326 -12 77 -31 123 -109
268 -35 65 -38 76 -37 150 0 63 8 103 36 190 44 137 52 184 33 191 -25 10
-180 -73 -238 -126 -95 -87 -117 -167 -81 -304 20 -76 20 -188 1 -241 -16 -43
-21 -38 -31 30 -3 22 -21 72 -41 112 -58 118 -189 218 -302 231 -54 6 -54 14
1 -118 68 -166 85 -332 51 -505 -10 -49 -18 -126 -18 -170 -1 -94 19 -145 103
-270 111 -164 122 -226 70 -386 -43 -133 -60 -268 -60 -475 0 -324 -24 -492
-90 -629 -34 -71 -51 -83 -45 -33 43 341 43 393 -1 598 -24 110 -28 158 -34
400 -7 228 -12 289 -29 357 -44 174 -113 314 -223 450 -94 116 -107 92 -43
-84 97 -267 136 -484 117 -645 -11 -83 -53 -233 -72 -252 -6 -6 -19 12 -34 45
-44 100 -50 155 -48 429 2 190 -1 274 -12 330 -18 93 -50 170 -71 170 -13 0
-15 -20 -15 -133 0 -145 -11 -254 -40 -392 -30 -145 -39 -155 -39 -47 -1 118
-20 211 -73 348 -55 146 -60 224 -25 395 14 68 28 145 32 171 8 63 -11 162
-43 221 -51 94 -166 176 -269 193 l-43 7 0 -64 c-1 -79 -23 -137 -109 -278
-90 -149 -94 -162 -90 -316 6 -260 -2 -314 -56 -365 -29 -27 -41 -21 -55 28
-18 67 -11 176 25 362 49 252 47 360 -8 441 -25 37 -101 99 -122 99 -9 0 -14
-33 -17 -132 -7 -194 -19 -219 -151 -325 -81 -65 -107 -104 -107 -158 0 -22
22 -132 50 -245 27 -113 50 -211 50 -218 0 -7 -26 9 -57 36 -49 41 -117 91
-158 115 -6 3 -17 2 -24 -3 -11 -6 -8 -23 17 -81 43 -105 63 -215 60 -329 l-3
-95 -54 80 c-66 98 -273 308 -298 303 -27 -5 -53 -66 -53 -124 0 -72 33 -130
150 -263 55 -62 113 -140 129 -173 84 -167 77 -386 -16 -547 -24 -42 -27 -43
-40 -25 -48 64 -178 377 -171 412 2 10 20 0 54 -32 69 -62 87 -61 79 2 -18
130 -62 247 -133 357 -51 80 -166 198 -188 193 -11 -2 -15 -26 -18 -103 -4
-101 -25 -184 -67 -267 -25 -48 -39 -48 -39 0 0 59 -37 197 -75 279 -44 95
-110 187 -188 264 l-62 60 0 127 c0 126 0 127 -36 197 -55 107 -64 140 -49
186 16 47 10 55 -29 40 -66 -28 -111 -105 -111 -191 0 -36 11 -76 41 -145 22
-53 39 -100 37 -106 -6 -19 -221 132 -299 210 -115 114 -148 196 -164 401 -14
192 -66 329 -225 595 -143 240 -199 378 -215 529 -9 77 -22 84 -60 29 -60 -89
-80 -235 -51 -374 30 -140 82 -238 275 -521 58 -84 119 -184 137 -223 34 -73
67 -187 62 -211 -2 -8 -88 98 -192 236 -104 137 -195 250 -203 250 -7 0 -13
-8 -13 -18 0 -10 39 -123 86 -252 100 -275 246 -702 241 -707 -9 -8 -102 64
-156 122 -116 125 -172 262 -176 435 -2 119 -13 133 -52 65 -48 -83 -66 -167
-61 -284 4 -94 8 -115 36 -174 17 -37 57 -100 88 -140 123 -156 123 -189 -1
-401 -16 -27 -33 -74 -40 -105 l-11 -55 -27 75 c-47 129 -200 339 -247 339
-18 0 -75 -113 -104 -205 -36 -119 -47 -283 -25 -399 6 -32 8 -60 6 -62 -10
-10 -128 244 -139 298 -10 48 -9 75 6 167 27 161 11 201 -78 201 -141 -1 -263
-128 -274 -285 -6 -91 14 -168 73 -285 41 -81 43 -90 23 -79 -39 20 -202 191
-243 254 -50 77 -102 195 -123 285 -32 130 -69 74 -66 -100 2 -90 22 -176 76
-313 127 -328 144 -393 134 -542 -3 -55 -16 -146 -29 -202 -25 -116 -35 -120
-83 -37 -32 54 -34 131 -8 244 10 41 18 111 18 155 0 77 -2 84 -61 210 -80
168 -93 221 -100 385 -3 74 -10 140 -15 145 -15 16 -103 -87 -143 -168 -68
-139 -67 -233 3 -374 22 -43 43 -92 46 -110 9 -38 -12 -125 -47 -201 l-25 -53
-84 123 c-174 256 -193 294 -186 382 4 44 16 82 44 136 31 61 38 86 38 135 1
65 -8 84 -99 213 -63 89 -80 152 -80 292 1 99 4 125 28 191 15 41 27 81 27 87
0 23 -30 11 -94 -37 -148 -113 -192 -190 -231 -411 -10 -52 -23 -108 -30 -125
-13 -28 -13 -25 -14 47 -2 186 -65 319 -179 381 -54 29 -152 48 -152 29 0 -6
15 -57 34 -114 34 -100 62 -247 54 -284 -2 -12 -14 1 -41 44 -44 72 -129 162
-151 162 -9 0 -16 -3 -16 -7 0 -5 -7 -57 -15 -118 -26 -199 -37 -366 -44 -665
-6 -266 -8 -299 -26 -335 l-20 -40 -6 325 c-8 412 -36 697 -105 1063 -22 116
-29 137 -44 137 -15 0 -24 -23 -49 -127 -44 -186 -52 -241 -52 -361 0 -152 12
-200 100 -386 29 -60 51 -118 49 -130 -4 -25 -86 -73 -110 -63 -9 3 -29 33
-44 67 -30 66 -68 100 -183 161 -91 47 -131 88 -131 130 0 38 15 65 81 141 61
70 79 107 79 163 0 60 -41 142 -75 151 -44 11 -88 -5 -156 -56 -80 -60 -136
-130 -183 -230 -49 -104 -62 -196 -48 -336 14 -136 0 -209 -46 -233 -16 -8
-17 -1 -17 82 l0 92 -67 135 c-80 161 -103 239 -89 301 15 68 1 76 -52 29 -19
-16 -45 -53 -57 -82 -19 -44 -22 -64 -17 -128 5 -79 23 -136 93 -291 98 -220
104 -282 47 -447 -35 -100 -38 -114 -37 -217 1 -92 7 -133 38 -250 39 -151 57
-285 37 -285 -17 0 -90 70 -108 103 -8 16 -19 59 -24 94 -11 81 -22 100 -108
204 -120 142 -147 225 -106 327 14 34 15 46 6 55 -18 17 -93 -67 -130 -146
-72 -153 -62 -311 30 -444 111 -161 140 -215 126 -230 -3 -2 -41 5 -85 16
-149 37 -222 91 -240 177 -10 49 -32 54 -56 14 -41 -70 -226 -243 -242 -227
-3 3 2 52 10 110 36 242 16 351 -119 646 -100 219 -159 397 -199 601 -65 331
-58 687 20 1018 13 57 24 112 24 123 0 26 -34 25 -107 -3 -82 -30 -168 -120
-270 -283 -87 -140 -160 -221 -226 -254 -22 -11 -42 -19 -44 -18 -1 2 -34 253
-73 558 -38 305 -77 582 -85 614 -18 70 -55 152 -87 198 l-22 31 -8 -34 c-4
-19 -12 -91 -17 -160 -12 -151 -1 -360 34 -655 64 -536 132 -798 305 -1180
138 -305 235 -591 339 -1000 119 -474 141 -637 141 -1080 1 -570 29 -719 194
-1025 13 -25 43 -103 66 -175 168 -524 585 -985 1135 -1254 245 -121 428 -181
805 -266 404 -92 576 -139 702 -194 39 -17 51 -28 65 -62 9 -23 52 -90 96
-148 125 -168 183 -301 242 -555 27 -115 27 -121 12 -170 -62 -197 -44 -353
78 -651 223 -545 624 -1319 998 -1925 282 -457 747 -1120 1003 -1430 295 -359
423 -473 889 -800 207 -144 354 -257 467 -356 75 -66 94 -75 104 -49 11 27
-130 181 -525 575 -407 406 -518 527 -689 755 -228 305 -407 592 -999 1605
-182 311 -357 610 -390 665 -381 639 -421 757 -473 1380 -22 258 -57 444 -111
587 l-30 76 25 37 c33 48 42 97 27 147 -7 22 -11 41 -9 42 4 3 1774 -40 2188
-53 447 -15 714 -44 960 -106 56 -14 99 -20 104 -15 5 5 5 30 -1 59 -6 28 -7
51 -4 51 3 0 101 -19 216 -42 l210 -41 230 -226 c127 -125 390 -370 585 -545
514 -462 687 -643 843 -881 99 -152 200 -377 222 -497 l6 -33 -223 3 c-505 6
-733 26 -903 79 -228 71 -364 156 -631 394 -226 201 -337 282 -491 358 -214
107 -397 150 -665 158 -166 5 -188 4 -194 -10 -4 -10 29 -80 86 -182 52 -93
89 -170 84 -175 -5 -4 -62 -25 -126 -45 -65 -20 -118 -40 -118 -45 0 -26 354
-1002 393 -1084 166 -351 414 -506 700 -437 104 25 177 27 216 6 16 -8 55 -44
87 -80 112 -128 196 -147 434 -97 231 48 311 57 505 56 285 -1 408 -20 1325
-204 960 -193 1154 -221 1517 -219 216 1 258 6 258 28 0 8 -28 29 -62 47 -158
83 -289 199 -373 328 -39 61 -45 77 -48 135 -2 44 1 72 10 84 9 12 73 30 218
62 113 25 215 47 228 50 12 3 22 11 22 19 0 7 -177 303 -394 657 -216 354
-393 645 -392 646 0 1 78 -5 171 -13 226 -18 245 -18 245 2 0 49 -254 442
-416 644 -60 74 -184 212 -276 306 l-167 170 199 83 c109 46 206 88 215 95 14
10 13 15 -9 45 -55 74 -289 322 -415 439 -146 135 -330 291 -428 362 -34 25
-63 48 -63 52 0 3 39 9 86 13 l86 8 -8 36 c-11 53 -7 85 15 129 57 112 295
245 578 323 253 69 312 100 474 244 56 50 126 109 157 132 92 69 356 199 323
159 -13 -15 -7 -36 10 -36 12 0 202 117 304 188 139 96 231 180 377 346 299
338 502 506 818 675 l115 62 195 -2 c168 -1 379 -17 458 -35 l23 -5 -28 -34
c-19 -23 -45 -38 -83 -50 -210 -63 -607 -192 -668 -217 -40 -17 -126 -65 -190
-108 -283 -189 -523 -416 -717 -675 -154 -207 -270 -321 -462 -458 -252 -178
-325 -249 -392 -382 -47 -95 -32 -97 129 -17 202 100 413 163 665 196 317 43
714 43 958 1 123 -22 252 -64 437 -145 124 -53 393 -176 408 -186 2 -1 -12
-22 -30 -46 -19 -25 -39 -58 -46 -74 -6 -16 -25 -66 -42 -111 -37 -97 -89
-160 -214 -258 -149 -116 -216 -202 -261 -333 -31 -90 -39 -177 -26 -275 17
-119 6 -150 -128 -360 -130 -204 -131 -210 -29 -195 104 15 282 80 493 181
373 177 469 200 825 201 135 0 340 -3 455 -8 199 -8 214 -8 288 13 94 25 128
42 185 88 89 72 125 177 143 411 20 273 78 535 146 665 48 91 100 134 230 191
149 66 140 65 151 19 21 -81 22 -137 7 -354 -26 -382 -54 -492 -199 -789 -89
-180 -131 -291 -142 -374 -7 -47 -6 -48 14 -37 38 20 251 221 339 319 115 129
230 284 294 398 61 108 53 108 159 8 177 -168 146 -300 -110 -458 -126 -78
-174 -117 -227 -190 -82 -111 -137 -245 -163 -396 -12 -66 -19 -82 -60 -130
-91 -108 -143 -198 -184 -322 l-24 -73 -113 -92 c-129 -105 -168 -145 -247
-258 -31 -44 -117 -143 -192 -220 -77 -79 -150 -164 -167 -195 -41 -72 -73
-181 -76 -255 -3 -88 18 -85 77 9 67 108 137 180 241 248 126 84 142 101 192
208 58 122 77 147 171 219 100 76 137 117 265 286 111 148 212 257 281 304 64
44 108 54 196 47 60 -6 86 -4 115 8 21 9 46 16 57 16 24 0 90 45 141 96 20 20
39 35 42 33 2 -3 -5 -24 -17 -48 -26 -54 -82 -96 -220 -167 -149 -76 -176
-103 -249 -244 -50 -100 -75 -134 -160 -226 -154 -167 -309 -414 -400 -638
-29 -73 -76 -112 -227 -192 -156 -83 -224 -128 -297 -200 -77 -77 -100 -110
-190 -269 -37 -66 -90 -151 -116 -190 -61 -87 -90 -167 -96 -267 -5 -72 -4
-78 13 -78 14 0 24 14 37 50 10 29 32 63 50 78 63 55 100 100 188 229 120 176
173 223 351 313 186 94 235 127 341 229 86 83 109 111 276 339 136 183 250
273 392 307 49 11 102 14 221 10 185 -6 245 4 294 47 38 34 45 68 14 68 -11 0
-20 2 -20 4 0 2 32 46 70 98 78 103 194 325 235 451 38 114 62 241 80 417 19
192 30 253 61 350 48 152 135 254 366 428 304 230 355 322 417 752 45 317 55
450 48 644 -12 345 -63 484 -306 826 -121 170 -141 202 -180 278 l-31 61 0
953 c0 1128 26 3136 46 3548 l6 125 -37 -35 c-43 -41 -114 -138 -143 -195 -41
-81 -63 -170 -73 -295 -18 -234 -28 -315 -45 -363 -9 -26 -18 -47 -21 -47 -3
0 -31 24 -62 53 -31 28 -120 94 -196 146 -77 52 -167 116 -201 142 -157 124
-295 310 -383 517 -34 81 -50 69 -77 -58 -64 -306 -200 -666 -360 -953 -42
-74 -63 -122 -57 -128 5 -5 32 -12 59 -15 48 -6 51 -5 81 29 23 27 32 48 37
93 8 70 41 134 79 152 55 27 92 -20 123 -156 19 -82 51 -140 99 -176 l36 -28
-35 -38 c-75 -83 -87 -139 -56 -259 26 -99 21 -129 -41 -252 -22 -44 -46 -106
-54 -137 -16 -63 -12 -90 34 -214 28 -78 27 -103 -15 -232 -26 -79 -38 -136
-42 -199 -5 -83 -6 -87 -26 -81 -36 11 -75 55 -95 108 -48 128 -87 417 -76
559 7 81 32 136 116 252 32 45 65 97 74 118 19 47 19 110 -1 149 -9 17 -19 70
-24 118 -5 48 -15 101 -24 117 -49 95 -177 86 -395 -28 -65 -34 -115 -52 -160
-60 -184 -29 -414 -100 -661 -206 l-159 -68 -46 -77 c-108 -182 -192 -421
-303 -863 -85 -337 -102 -431 -109 -597 l-6 -128 -29 0 c-16 0 -54 -9 -86 -21
-177 -65 -185 -67 -312 -72 -134 -6 -184 -18 -297 -76 -94 -47 -284 -179 -405
-280 -60 -50 -108 -87 -108 -82 0 20 82 127 179 233 168 183 198 241 267 521
76 304 107 366 325 637 141 176 178 233 254 392 135 287 394 1167 459 1563 43
261 47 345 44 831 -3 511 2 564 64 752 30 90 49 125 181 337 71 114 103 212
116 348 10 97 3 281 -14 427 -15 130 -73 949 -72 1035 0 55 -3 148 -7 207 -6
86 -11 107 -24 111 -10 2 -57 82 -111 188 l-93 185 -13 174 c-7 96 -16 198
-19 225 -5 50 6 11 49 -175 18 -76 66 -153 139 -223 l51 -49 2 129 c1 70 7
196 13 278 9 127 9 156 -4 190 l-15 40 0 -37 c-1 -47 -17 -50 -26 -5 -14 64
-74 198 -120 267 -26 40 -71 89 -103 114 -74 59 -89 86 -123 223 -34 139 -92
240 -175 305 -20 16 -19 10 12 -60 106 -247 108 -522 4 -771 -61 -147 -70
-153 -70 -53 0 199 -46 480 -115 706 -54 177 -69 261 -62 330 5 51 34 136 46
136 3 0 14 -17 24 -38 24 -52 54 -85 71 -79 23 9 30 97 12 168 -9 34 -14 64
-12 66 9 9 124 -20 184 -48 117 -52 229 -185 262 -309 7 -25 16 -97 20 -160 7
-111 26 -180 50 -180 18 0 70 84 87 139 13 43 17 102 18 256 2 159 6 211 19
255 27 84 82 181 138 244 l50 57 9 242 c16 452 53 693 156 1012 278 868 896
1596 1633 1926 613 274 1293 306 2232 104 176 -38 249 -69 382 -164 337 -239
579 -658 726 -1255 33 -135 141 -626 157 -718 6 -30 23 -39 23 -12 0 27 98
408 185 719 239 854 325 1277 399 1945 80 721 87 1565 21 2215 -3 22 -12 110
-20 195 -93 919 -323 1925 -651 2840 -125 352 -139 384 -161 394 -12 6 -31 30
-43 55 -12 25 -54 102 -93 171 -649 1145 -1604 2163 -2822 3007 -1022 709
-2231 1280 -3425 1619 -107 30 -208 61 -225 69 -71 31 -539 176 -820 254 -652
180 -1406 336 -1970 406 -27 3 -80 10 -116 15 -210 30 -719 74 -1029 89 -160
8 -981 11 -1110 5z m7395 -22726 c37 -17 37 -53 -2 -110 l-25 -37 -87 6 c-106
7 -166 -8 -301 -78 -52 -26 -130 -58 -174 -69 -134 -36 -193 -76 -272 -185
-81 -114 -88 -139 -80 -290 9 -153 3 -184 -53 -275 -35 -59 -42 -66 -81 -72
-23 -4 -48 -13 -56 -19 -15 -12 -20 -79 -6 -79 12 0 32 -46 32 -74 0 -13 -23
-54 -50 -91 -28 -38 -48 -70 -46 -72 16 -17 262 200 349 307 72 89 81 103 293
452 92 150 171 276 177 280 6 4 17 2 23 -3 26 -21 -43 -190 -140 -346 -93
-151 -110 -196 -112 -289 -1 -60 -7 -89 -20 -110 -92 -145 -344 -418 -421
-455 -39 -19 -48 -20 -94 -9 -64 16 -115 7 -191 -31 -33 -17 -58 -27 -56 -22
2 4 23 47 47 94 l42 86 9 194 c12 252 39 401 111 606 118 334 291 516 554 582
44 11 159 34 255 51 96 18 198 40 225 50 60 21 115 24 150 8z m1174 -455 c36
-44 51 -96 44 -154 -6 -52 8 -85 67 -161 41 -51 59 -103 41 -121 -7 -7 -30 -1
-78 21 -114 51 -186 64 -237 41 -32 -15 -44 -48 -48 -131 -3 -56 -9 -74 -35
-110 -40 -56 -58 -62 -50 -17 3 19 9 120 12 224 10 297 20 345 102 458 l35 47
60 -32 c33 -17 72 -47 87 -65z m-181 -856 c76 -71 103 -220 62 -347 -12 -38
-53 -125 -90 -194 -111 -204 -152 -326 -169 -507 -15 -153 10 -358 58 -481 12
-32 19 -33 65 -14 l34 14 -20 -56 c-17 -49 -19 -73 -14 -168 6 -104 5 -113
-20 -162 -55 -110 -221 -189 -489 -234 -102 -17 -585 -17 -745 0 -63 7 -236
37 -385 67 -381 76 -510 87 -710 65 -135 -16 -227 -37 -367 -84 -93 -31 -132
-40 -145 -33 -30 16 -84 70 -100 100 -13 26 -13 31 3 55 9 15 43 52 74 82 62
59 72 82 84 193 8 78 -10 85 -67 26 -23 -24 -57 -55 -75 -67 l-32 -24 6 87 c6
74 11 91 33 115 14 16 36 41 49 57 22 27 23 27 35 9 81 -126 131 -171 200
-182 20 -4 37 -11 37 -16 0 -31 -41 -92 -104 -158 -82 -84 -103 -117 -87 -133
11 -11 40 -4 266 64 273 82 486 119 693 119 217 0 344 -26 673 -140 290 -100
365 -115 574 -115 132 1 184 5 234 19 83 23 172 68 220 111 21 19 43 35 49 35
15 0 39 48 51 99 13 58 -4 69 -64 42 l-45 -20 -19 20 c-10 11 -22 40 -26 65
-12 83 -42 89 -127 27 -74 -54 -198 -95 -288 -96 -46 -1 -87 4 -107 13 l-32
15 65 80 c227 279 465 711 589 1065 19 57 51 128 69 159 57 93 78 158 79 236
1 62 -4 79 -36 142 -20 40 -37 79 -37 88 0 14 4 14 37 0 21 -9 48 -26 61 -38z
m-13881 16 c5 -12 -11 -33 -56 -75 -230 -216 -278 -337 -183 -460 56 -73 65
-100 65 -203 0 -108 -16 -161 -109 -355 l-65 -135 -85 3 c-217 9 -420 -79
-589 -252 -130 -134 -230 -327 -256 -498 -6 -40 -14 -80 -16 -88 -9 -27 -36
51 -41 117 -3 38 -9 64 -17 67 -8 3 -49 -42 -107 -115 -51 -67 -94 -116 -96
-110 -5 16 62 231 153 486 47 131 85 245 85 252 0 28 -38 11 -67 -30 -17 -24
-95 -109 -172 -190 -121 -126 -206 -226 -272 -319 -37 -51 -29 -1 19 119 59
148 94 253 125 373 20 79 22 108 22 435 0 344 0 351 24 408 29 73 71 121 130
152 l46 23 235 -30 c407 -51 462 -38 640 150 138 145 201 197 290 233 123 52
285 74 297 42z m12088 -587 c55 -7 114 -19 130 -28 51 -27 149 -103 204 -158
104 -104 349 -415 337 -427 -10 -11 -108 24 -159 57 -26 16 -102 83 -170 148
-160 156 -221 196 -363 244 -59 20 -88 23 -199 22 -171 -1 -229 -19 -532 -171
l-231 -116 -139 -8 c-80 -4 -151 -12 -168 -20 -21 -10 -74 -14 -177 -14 l-147
0 32 33 c50 53 158 129 228 161 72 34 142 46 339 60 134 9 137 10 320 79 275
104 334 120 510 146 48 7 85 5 185 -8z m-1470 -1046 c3 -5 -14 -36 -39 -69
-55 -75 -71 -137 -61 -234 4 -40 7 -124 6 -188 -2 -88 2 -125 15 -158 26 -66
45 -71 251 -71 197 0 314 -15 445 -56 149 -47 219 -90 428 -264 154 -127 256
-192 350 -220 36 -11 144 -29 240 -39 245 -28 366 -69 448 -154 l33 -34 -53
-50 c-78 -73 -151 -117 -258 -155 -92 -32 -100 -33 -245 -33 -124 1 -165 5
-235 24 -268 72 -573 239 -925 506 -71 54 -178 135 -237 180 -139 105 -237
161 -356 201 -168 57 -254 68 -552 68 -372 0 -497 -21 -622 -104 l-58 -38 17
31 c9 18 41 70 71 116 196 298 489 541 745 620 75 23 247 55 254 47 6 -6 -13
-34 -119 -178 -44 -59 -77 -112 -73 -118 9 -14 28 -13 61 5 63 33 153 10 240
-61 33 -28 48 -34 56 -26 21 21 -9 91 -63 142 -29 28 -49 56 -49 69 0 12 16
44 35 72 25 36 35 62 35 89 0 35 2 38 43 49 23 7 53 19 67 27 29 15 96 18 105
4z m3865 -161 c0 -29 -11 -58 -39 -105 -78 -128 -81 -242 -11 -413 38 -95 42
-110 38 -175 -4 -87 -38 -161 -128 -281 -127 -169 -160 -263 -162 -455 -2
-142 14 -195 60 -207 34 -8 50 3 98 72 54 77 79 89 168 81 172 -15 202 -19
210 -27 23 -21 -143 -208 -267 -301 -88 -65 -113 -70 -178 -36 -37 19 -46 20
-83 9 -113 -34 -136 -36 -174 -16 -44 25 -70 73 -83 156 -13 83 -4 182 33 349
l30 135 -7 230 c-6 193 -5 244 9 318 40 213 143 410 294 564 74 75 173 154
184 147 4 -3 8 -23 8 -45z m-972 -621 c29 -25 8 -104 -41 -157 -60 -62 -318
-250 -374 -272 -15 -6 -66 -17 -112 -25 -87 -16 -128 -31 -150 -58 -8 -10 -29
-16 -55 -16 l-41 0 2 67 1 68 55 37 c31 21 86 70 124 109 110 114 216 182 354
228 123 40 203 47 237 19z m-2418 -1107 c0 -5 -7 -15 -17 -22 -23 -20 -63
-109 -63 -143 l0 -29 68 7 c85 8 387 70 472 96 36 11 70 20 76 20 6 0 2 -27
-12 -67 -22 -65 -44 -195 -44 -251 0 -60 9 -59 163 17 80 39 150 71 157 71 13
0 -132 -177 -184 -224 -105 -96 -376 -143 -556 -96 -110 29 -173 26 -266 -11
-70 -28 -85 -31 -146 -25 -109 10 -169 -28 -193 -121 l-12 -47 -13 39 c-20 60
-17 143 7 190 12 22 48 71 81 108 46 52 70 92 103 170 37 87 53 111 109 167
81 81 270 187 270 151z"/>
<path d="M16855 34789 c-394 -26 -814 -109 -1192 -236 -149 -50 -305 -110
-258 -100 11 3 90 25 175 51 574 169 1173 257 1890 277 54 2 48 4 -40 9 -141
10 -415 9 -575 -1z"/>
<path d="M13960 34355 c-176 -22 -332 -53 -630 -125 -463 -113 -621 -135 -994
-135 -271 0 -271 -7 -1 -25 112 -7 209 -7 325 0 279 18 384 37 790 145 229 61
438 107 610 135 93 15 105 18 60 18 -30 0 -102 -6 -160 -13z"/>
<path d="M16430 33989 c-158 -11 -299 -34 -467 -75 -137 -33 -332 -95 -363
-116 -12 -7 -11 -8 4 -3 290 92 632 158 971 189 138 13 143 14 60 13 -49 0
-142 -4 -205 -8z"/>
<path d="M13770 33545 c-41 -7 -136 -25 -210 -38 -314 -59 -602 -82 -920 -74
-124 4 -267 11 -318 17 -130 16 -138 7 -12 -13 207 -32 339 -40 604 -34 314 6
433 22 763 103 78 19 168 38 200 43 56 8 56 9 13 9 -25 0 -79 -6 -120 -13z"/>
<path d="M18812 33020 c-95 -13 -161 -35 -257 -86 -133 -70 -151 -74 -360 -85
-397 -20 -695 -76 -1017 -191 -92 -32 -118 -46 -118 -60 0 -10 4 -18 9 -18 5
0 101 18 213 39 409 79 454 85 613 86 134 0 158 -3 225 -25 l75 -25 -110 -3
c-81 -2 -113 -6 -121 -17 -8 -10 -20 -12 -50 -5 -188 41 -492 -11 -591 -102
-20 -19 -27 -19 -135 -8 -230 25 -463 -24 -636 -134 -37 -23 -43 -24 -40 -9 3
16 -6 18 -62 21 -35 2 -70 8 -77 14 -24 19 -152 12 -216 -12 -72 -27 -177
-120 -177 -156 0 -13 6 -24 13 -24 6 -1 -19 -17 -58 -37 -52 -28 -88 -39 -142
-44 -181 -18 -323 -136 -442 -369 -60 -117 -88 -198 -141 -408 -82 -330 -138
-461 -305 -722 -194 -304 -248 -444 -264 -691 -10 -150 2 -407 24 -505 18 -82
54 -146 148 -261 79 -99 86 -110 137 -254 48 -134 75 -183 131 -233 54 -50 98
-68 249 -106 126 -31 190 -57 356 -150 125 -69 216 -91 374 -92 131 -1 234 14
425 58 189 45 230 71 337 214 42 55 99 96 161 115 55 16 57 29 -22 -108 -102
-177 -190 -386 -198 -467 -6 -76 17 -116 88 -153 56 -28 99 -36 339 -58 288
-26 392 -20 496 31 140 68 211 206 270 525 30 164 3 405 -46 405 -15 0 -22
-18 -39 -92 -29 -123 -52 -157 -126 -184 -76 -27 -104 19 -62 103 14 26 32 73
40 104 45 155 139 192 394 154 541 -79 1006 -266 1648 -663 247 -153 258 -161
245 -177 -30 -36 34 -41 107 -9 17 8 52 17 78 21 42 5 57 1 173 -55 156 -75
260 -109 366 -121 134 -15 218 -1 486 82 59 18 95 20 375 22 171 0 384 5 475
9 144 7 181 5 290 -12 183 -30 288 -35 445 -22 229 19 315 41 373 94 61 55 69
138 22 248 -40 94 -44 129 -26 216 26 120 22 171 -21 255 -35 69 -37 78 -43
202 -6 118 -9 137 -37 195 -78 167 -201 276 -440 391 -79 38 -106 56 -118 79
-9 17 -13 36 -9 42 7 10 84 7 162 -8 29 -6 32 -4 32 18 0 64 -93 138 -215 173
-117 34 -178 82 -230 184 -33 65 -79 118 -125 141 -20 10 -74 23 -121 30 -96
12 -159 33 -183 59 -15 16 -16 25 -7 58 16 57 13 113 -9 161 -38 84 -180 197
-313 249 -67 26 -69 28 -103 95 -19 37 -34 70 -34 73 0 4 66 -28 146 -70 140
-73 174 -83 174 -52 0 8 -94 104 -208 213 -255 244 -344 325 -492 444 -90 72
-118 101 -128 130 -19 56 -74 113 -181 189 -98 70 -139 107 -129 117 11 11 75
-24 133 -73 81 -67 103 -79 111 -58 4 10 -4 28 -23 48 -17 18 -55 66 -85 107
-101 137 -136 162 -279 190 -31 6 -74 20 -95 30 -46 24 -54 25 -54 5 0 -29
-16 -12 -80 87 -75 115 -201 255 -298 328 -66 50 -232 140 -257 140 -8 0 -23
13 -34 29 -31 44 -125 101 -216 132 -137 47 -420 77 -553 59z m-7 -1385 c139
-34 161 -43 257 -105 103 -67 143 -72 312 -38 107 21 112 21 175 4 120 -31
198 -96 369 -308 56 -70 130 -150 165 -178 113 -92 326 -180 437 -180 32 0 46
-8 91 -52 54 -51 154 -122 189 -133 10 -3 21 -16 24 -29 8 -34 108 -122 169
-148 129 -57 151 -73 203 -142 28 -37 57 -72 65 -77 9 -6 -8 -9 -51 -10 -83
-1 -154 -19 -158 -40 -2 -13 10 -17 65 -22 84 -7 139 -26 226 -79 37 -22 82
-46 101 -52 30 -10 32 -14 21 -29 -11 -16 -16 -15 -68 8 -112 52 -173 58 -497
51 -311 -7 -409 -18 -497 -56 -57 -24 -92 -56 -77 -69 5 -5 52 -20 104 -35
175 -48 349 -153 365 -219 10 -37 -12 -35 -88 7 -34 19 -88 41 -119 49 -45 12
-102 47 -285 175 -484 340 -673 430 -968 462 -158 16 -335 45 -487 80 -287 64
-866 201 -913 217 -67 21 -156 66 -214 108 -66 47 -112 65 -169 65 -68 0 -97
-25 -209 -180 -52 -72 -97 -129 -99 -127 -8 8 34 160 66 244 17 43 30 81 30
86 0 4 -24 31 -53 60 -78 77 -95 149 -57 249 21 57 73 113 170 187 30 22 77
59 105 80 68 54 114 64 250 52 115 -10 196 -5 370 24 130 22 251 21 515 -4
260 -25 290 -26 290 -7 0 9 -26 23 -67 36 -79 25 -169 69 -203 100 -21 18 -22
20 -5 15 11 -4 79 -22 150 -40z m-161 -1630 c203 -15 418 -90 790 -277 697
-349 851 -461 1315 -956 204 -218 333 -322 513 -414 l68 -35 -23 -21 c-12 -11
-45 -31 -72 -44 -42 -19 -66 -23 -150 -22 -130 1 -227 32 -511 164 -225 105
-348 152 -436 169 -46 8 -74 24 -174 99 -333 249 -602 395 -882 476 -205 59
-483 114 -667 131 -38 4 -81 9 -95 12 -14 2 -126 7 -250 10 -260 6 -350 -5
-515 -63 -110 -39 -104 -38 -227 -55 -77 -11 -90 -10 -112 4 -54 36 -53 52 11
129 344 421 739 655 1178 696 83 8 91 8 239 -3z"/>
<path d="M11243 32036 c-89 -101 -122 -203 -183 -561 -23 -132 -50 -291 -61
-353 -41 -243 -52 -365 -52 -582 -1 -362 53 -662 180 -1008 38 -104 48 -123
65 -120 19 3 19 16 22 363 3 362 23 673 51 820 29 152 82 246 170 300 42 26
58 30 119 30 83 0 112 -14 291 -142 61 -43 189 -130 285 -193 184 -119 330
-223 417 -296 44 -38 53 -52 62 -96 14 -64 40 -124 82 -185 26 -38 28 -44 9
-28 -12 11 -53 65 -90 120 -82 122 -124 164 -210 209 -77 41 -196 74 -211 59
-7 -7 -6 -27 5 -62 19 -63 9 -95 -35 -119 -84 -45 -247 -177 -365 -296 -115
-115 -136 -142 -172 -216 -23 -47 -51 -120 -62 -163 -16 -65 -70 -392 -70
-427 0 -18 34 -11 74 16 l38 26 -7 -23 c-17 -56 -35 -87 -74 -132 -23 -27 -39
-53 -36 -58 10 -15 131 -10 182 7 65 22 168 91 227 152 37 39 53 49 62 41 15
-12 12 -14 113 59 153 110 284 158 401 149 139 -10 230 -70 340 -223 34 -46
74 -91 90 -100 l28 -17 -51 -61 c-59 -72 -91 -138 -83 -172 4 -13 24 -35 46
-49 53 -34 64 -56 47 -98 -26 -62 -53 -71 -232 -78 -144 -5 -167 -9 -230 -34
l-70 -29 -200 33 c-110 18 -240 40 -290 49 -60 11 -151 16 -275 16 -204 1
-278 -13 -405 -74 -69 -34 -175 -114 -175 -133 0 -8 15 -31 33 -52 33 -38 34
-38 66 -25 29 12 35 11 59 -9 72 -57 64 -57 142 -10 39 23 73 39 76 36 3 -3 1
-22 -6 -42 -16 -47 -4 -107 25 -135 21 -20 31 -22 78 -16 54 6 54 6 49 -19 -7
-37 18 -40 78 -10 28 14 57 24 63 22 7 -3 -3 -10 -21 -17 -37 -14 -52 -36 -52
-77 0 -15 -7 -49 -17 -75 -20 -56 -9 -78 41 -78 l31 0 0 -83 c0 -69 4 -88 24
-121 25 -39 85 -75 128 -76 20 0 21 -3 12 -32 -15 -54 -11 -120 11 -155 24
-40 93 -65 114 -42 11 12 63 246 81 365 9 62 -9 112 -65 179 -113 136 -81 238
92 290 66 19 302 20 408 1 78 -14 230 -73 230 -90 0 -38 -233 -273 -347 -350
-71 -48 -91 -76 -55 -76 10 0 65 16 122 35 57 19 108 35 112 35 27 0 -98 -174
-193 -269 -111 -111 -224 -181 -430 -271 -115 -50 -196 -100 -249 -152 -42
-42 -96 -135 -86 -146 4 -3 29 0 57 6 28 7 63 12 78 12 45 0 128 -48 177 -103
64 -72 101 -150 130 -280 71 -317 91 -378 119 -381 24 -2 490 999 858 1846
336 773 355 836 344 1142 -8 229 -44 365 -189 731 -111 277 -142 365 -179 507
-32 122 -33 125 -34 378 -1 213 -5 262 -19 300 -45 119 -143 219 -312 319
-278 164 -363 253 -382 399 l-8 57 -45 -1 c-26 -1 -67 -13 -95 -27 l-50 -25
-160 100 c-259 163 -369 208 -509 208 -62 0 -64 -1 -102 -44z"/>
<path d="M15350 31975 c-8 -9 -29 -15 -55 -15 -106 0 -251 -73 -338 -169 -59
-67 -123 -194 -142 -286 -19 -93 -19 -274 1 -414 16 -111 16 -117 -6 -256 -23
-137 -22 -181 1 -173 17 6 132 218 184 340 60 141 82 232 101 413 10 94 24
175 39 217 27 79 91 172 167 244 45 42 59 51 81 47 20 -4 29 0 34 13 4 10 2
19 -5 22 -7 2 -12 10 -12 18 0 19 -34 18 -50 -1z"/>
<path d="M14635 30836 c-19 -45 -19 -111 0 -201 25 -116 20 -166 -24 -264 -70
-156 -54 -204 38 -113 89 89 136 215 129 342 -4 67 -10 87 -54 170 -27 51 -55
95 -62 98 -7 2 -19 -12 -27 -32z"/>
<path d="M18785 28653 c-11 -2 -30 -6 -42 -9 -31 -6 -29 -17 11 -70 37 -48 73
-130 62 -141 -3 -4 -41 1 -84 10 -72 16 -78 16 -89 0 -18 -24 -52 -115 -75
-203 -23 -89 -37 -294 -20 -304 12 -7 510 18 687 35 61 6 157 21 215 35 186
44 293 62 398 70 123 8 128 17 50 91 -71 67 -130 103 -385 237 -262 137 -308
157 -444 191 -57 14 -133 35 -168 46 -63 19 -78 21 -116 12z"/>
<path d="M31105 28033 c-413 -25 -815 -185 -1074 -429 -45 -42 -81 -73 -81
-70 0 24 61 119 106 166 30 31 54 63 54 70 0 21 -192 7 -258 -18 -100 -38
-148 -90 -177 -187 -20 -69 -62 -107 -169 -150 -98 -39 -690 -339 -776 -393
-113 -70 -176 -157 -198 -272 -18 -91 -24 -259 -13 -361 14 -128 41 -209 103
-310 145 -235 163 -298 129 -444 -12 -49 -21 -110 -20 -135 2 -25 -5 -71 -15
-102 -23 -76 -11 -136 51 -254 47 -90 51 -111 43 -216 -6 -67 11 -81 100 -86
71 -4 81 -10 56 -31 -8 -7 -12 -21 -8 -33 4 -18 2 -20 -19 -14 -46 14 -96 18
-102 9 -11 -17 23 -156 48 -198 53 -91 219 -215 373 -280 105 -43 193 -51 365
-31 139 15 159 15 300 0 226 -24 327 -6 516 91 116 60 290 181 364 253 44 43
70 82 107 158 40 81 67 119 141 200 142 154 177 217 200 367 36 233 -73 503
-266 660 -78 63 -177 110 -300 143 -126 33 -179 59 -263 131 -98 83 -172 114
-284 121 l-90 5 -197 124 c-108 68 -212 128 -232 134 -137 42 -326 -257 -331
-521 -2 -145 31 -258 138 -466 39 -78 98 -206 130 -284 47 -117 67 -152 108
-198 42 -46 46 -54 26 -47 -117 36 -204 131 -355 390 -185 315 -202 504 -75
828 107 274 258 433 449 473 81 16 87 15 211 -56 104 -59 132 -65 229 -50 65
10 86 10 144 -4 92 -22 117 -20 187 9 33 14 79 25 104 25 87 0 138 37 188 133
16 32 63 94 103 138 60 64 78 90 91 136 24 84 14 149 -41 257 l-45 89 37 -7
c21 -3 46 -6 56 -6 10 0 47 -28 83 -62 75 -72 213 -173 296 -218 75 -41 88
-60 88 -136 0 -101 26 -206 80 -332 61 -138 80 -216 80 -333 0 -102 10 -135
80 -252 28 -49 67 -121 85 -160 l34 -72 7 -216 c5 -168 4 -221 -6 -240 -12
-22 -38 -429 -39 -616 -1 -77 20 -86 48 -20 94 219 211 445 351 677 166 275
173 296 175 505 1 122 6 170 18 204 22 56 21 75 -4 196 -32 153 -36 168 -68
215 l-29 45 -5 235 c-7 324 -36 462 -133 639 -83 152 -229 310 -355 384 -147
86 -352 117 -654 100z m-1292 -2958 c48 -25 94 -45 101 -45 7 0 27 -18 44 -39
18 -22 74 -72 124 -111 134 -102 276 -232 277 -252 1 -11 -6 -18 -17 -18 -30
0 -533 293 -589 343 -33 29 -46 71 -39 122 4 25 8 45 10 45 1 0 41 -20 89 -45z"/>
<path d="M19830 27919 c-47 -5 -150 -23 -230 -40 -465 -98 -635 -130 -786
-148 -441 -53 -851 -55 -1293 -5 -107 12 -146 13 -154 5 -18 -18 5 -27 95 -41
43 -7 77 -15 74 -17 -12 -13 -527 35 -788 72 -128 18 -176 21 -204 14 -44 -13
-37 -21 36 -44 83 -27 172 -69 278 -131 91 -54 94 -57 72 -69 -22 -12 -21 -14
51 -62 41 -28 160 -117 264 -198 475 -367 697 -478 1093 -544 297 -50 550 -74
787 -75 304 -1 433 23 620 116 301 151 478 426 436 679 -20 125 -90 229 -185
277 l-40 19 127 74 c140 81 155 102 85 113 -84 12 -254 15 -338 5z"/>
<path d="M32470 25281 c0 -58 -47 -177 -119 -301 -90 -155 -354 -687 -495
-998 -58 -129 -106 -236 -106 -239 0 -3 -47 -76 -105 -163 -240 -364 -657
-1086 -858 -1490 -203 -405 -319 -695 -416 -1040 -71 -248 -144 -661 -122
-683 21 -21 37 4 54 88 26 127 98 370 153 515 188 502 462 979 896 1566 284
383 382 544 465 759 20 49 44 102 54 117 36 50 88 173 114 268 57 207 97 316
151 413 76 136 91 179 124 347 31 156 54 219 148 405 33 66 68 141 76 168 40
122 42 288 3 295 -13 3 -17 -3 -17 -27z"/>
<path d="M15714 25116 c-8 -20 41 -1099 58 -1266 26 -272 11 -430 -49 -501
-52 -62 -120 -73 -226 -38 -63 21 -197 103 -205 127 -2 7 9 15 27 18 17 4 31
10 31 14 0 26 -146 100 -266 135 -48 14 -186 43 -308 65 -361 66 -618 166
-991 385 -210 123 -196 108 -125 135 70 26 77 46 28 84 -92 69 -161 77 -556
69 l-323 -6 -44 -34 c-35 -28 -57 -36 -112 -43 -91 -12 -98 -15 -168 -75 -72
-63 -113 -84 -226 -119 -101 -30 -154 -66 -196 -132 -43 -66 -56 -128 -51
-229 4 -71 10 -95 41 -159 48 -96 138 -181 251 -237 75 -37 128 -52 376 -109
170 -40 228 -80 381 -262 56 -66 123 -136 150 -155 l48 -34 -34 -62 c-55 -101
-87 -209 -92 -317 -5 -103 3 -139 68 -315 29 -78 33 -103 34 -185 l0 -95 -57
-83 c-58 -83 -75 -120 -65 -145 3 -8 49 -27 104 -42 74 -22 120 -29 188 -29
105 -1 141 9 329 96 213 98 263 112 391 111 78 0 146 -8 234 -27 393 -83 707
-41 782 105 18 35 21 54 16 107 -4 59 -10 72 -70 160 -43 63 -71 118 -82 157
-44 159 -64 170 -300 169 -150 -1 -253 -10 -348 -31 -28 -5 -28 -5 -25 33 l3
39 190 6 c201 7 233 13 330 62 59 30 63 30 220 31 136 2 170 5 225 24 89 30
166 83 295 205 138 128 181 158 317 218 337 149 428 235 584 548 34 68 64 119
67 114 3 -5 15 -65 27 -134 12 -74 30 -142 43 -169 28 -55 84 -90 143 -90 90
0 131 76 126 235 -1 55 6 175 15 266 16 157 16 171 -1 255 -34 174 -129 338
-330 567 -61 70 -75 77 -96 52 -7 -8 -20 -15 -30 -15 -40 0 -157 97 -358 297
-218 216 -257 246 -339 259 -35 5 -44 3 -49 -10z m-1689 -1391 c55 -8 134 -24
175 -36 85 -23 242 -80 237 -86 -2 -2 -49 4 -103 14 -77 13 -159 17 -364 18
-291 0 -361 -8 -495 -56 -141 -51 -218 -127 -251 -248 -33 -120 8 -217 102
-240 24 -6 44 -16 44 -22 0 -5 -12 -22 -26 -36 -22 -22 -32 -25 -66 -20 -59 8
-88 33 -127 109 -45 91 -54 202 -22 306 48 160 192 248 481 297 104 18 296 18
415 0z"/>
<path d="M31270 24220 c-177 -127 -182 -129 -355 -140 -81 -5 -147 -15 -173
-25 -39 -16 -102 -74 -102 -95 0 -5 -14 -30 -31 -55 -99 -146 1 -251 190 -200
177 47 325 176 499 437 83 126 74 151 -28 78z"/>
<path d="M11617 23973 c-22 -21 27 -187 93 -316 98 -193 219 -321 560 -594
312 -251 366 -287 498 -335 107 -40 140 -57 180 -92 23 -21 24 -21 38 -2 8 11
14 27 14 36 0 9 9 34 20 55 23 44 20 74 -7 91 -10 6 -119 66 -243 134 -432
236 -598 348 -770 520 -114 114 -205 236 -301 403 -60 104 -68 114 -82 100z"/>
<path d="M28153 23544 c-27 -61 -24 -250 5 -329 33 -89 84 -156 181 -237 100
-84 157 -142 178 -181 10 -21 20 -28 34 -24 26 7 33 -26 25 -115 -5 -56 -3
-77 13 -111 45 -100 130 -139 265 -123 63 8 66 20 7 30 -59 9 -115 66 -130
133 -34 142 63 289 216 328 139 36 266 -33 398 -212 52 -70 89 -104 149 -136
80 -42 231 -19 311 48 l30 25 -57 -6 c-52 -6 -61 -4 -107 25 -69 44 -138 121
-169 189 -23 51 -27 73 -32 203 -7 164 -24 217 -85 263 -79 61 -233 92 -410
84 -87 -5 -114 -11 -208 -47 -78 -30 -122 -41 -162 -41 -102 0 -220 66 -357
198 l-78 75 -17 -39z"/>
<path d="M27925 22701 c-3 -6 -13 -29 -22 -53 -15 -38 -17 -105 -20 -543 -2
-275 -4 -530 -6 -567 -2 -58 1 -70 21 -90 50 -50 156 -12 205 74 16 28 27 67
32 110 3 37 11 70 16 74 17 10 106 -26 165 -68 33 -22 99 -83 149 -134 89 -93
90 -94 138 -94 27 0 64 8 86 20 60 30 147 116 175 172 43 86 31 182 -26 223
l-23 15 20 37 c17 31 29 40 76 53 30 9 83 31 116 49 76 41 172 125 158 139 -5
5 -68 12 -140 15 -81 3 -146 11 -172 20 -59 22 -140 79 -258 182 -195 170
-306 230 -380 208 -31 -10 -33 -9 -53 33 -26 53 -51 70 -155 105 -93 32 -94
32 -102 20z"/>
<path d="M12567 21727 c-5 -13 -38 -210 -50 -299 -7 -45 5 -51 63 -29 44 16
45 17 54 75 6 39 6 79 -1 120 -12 67 -57 157 -66 133z"/>
<path d="M13909 21186 c-52 -8 -197 -35 -322 -60 -186 -38 -259 -48 -402 -56
-96 -5 -204 -16 -240 -25 -208 -48 -392 -221 -458 -430 -17 -55 -23 -91 -37
-240 -14 -145 -14 -144 -105 -335 -87 -180 -131 -311 -142 -415 -5 -45 -13
-69 -34 -95 -40 -49 -71 -126 -71 -171 2 -106 102 -166 182 -109 18 13 56 55
85 95 92 123 119 140 306 190 73 20 154 47 180 62 28 15 100 79 173 155 192
198 225 208 658 207 155 -1 333 4 393 10 61 7 130 14 155 17 25 2 122 13 215
24 491 55 769 51 1035 -15 114 -29 174 -53 341 -134 143 -70 195 -83 419 -106
282 -30 726 -42 747 -21 12 11 -56 202 -109 308 -35 70 -69 119 -114 167 -106
112 -205 153 -478 197 -185 30 -344 73 -513 140 -153 61 -875 376 -1065 465
-188 88 -281 125 -393 155 -114 31 -273 39 -406 20z"/>
<path d="M24827 20653 c-43 -22 -98 -82 -120 -132 -17 -37 -20 -62 -17 -131 7
-184 6 -192 -33 -271 -20 -41 -47 -91 -59 -111 -35 -57 -16 -67 61 -33 80 36
150 111 180 190 23 61 24 114 5 252 -4 27 0 59 10 90 16 48 22 149 9 156 -5 2
-21 -3 -36 -10z"/>
<path d="M17960 20160 c0 -12 21 -110 48 -218 46 -194 47 -200 46 -352 -1 -93
-8 -194 -18 -252 -30 -180 -16 -382 34 -507 18 -43 19 -44 19 -16 1 17 13 100
27 185 34 204 36 357 5 600 -30 246 -54 366 -93 480 -23 66 -38 96 -50 98 -13
2 -18 -3 -18 -18z"/>
<path d="M22015 19870 c-3 -5 1 -33 10 -62 19 -64 19 -136 0 -258 -21 -139
-19 -196 17 -364 27 -125 32 -173 32 -276 0 -115 -3 -138 -44 -295 -39 -149
-44 -183 -44 -280 -1 -101 1 -115 28 -170 l28 -60 18 85 c10 47 30 116 45 154
19 52 28 99 35 190 5 67 18 150 29 186 10 36 28 94 39 130 55 178 53 237 -8
371 -45 97 -49 139 -28 288 19 136 -14 254 -92 330 -44 43 -55 48 -65 31z"/>
<path d="M13567 18993 c-12 -3 -17 -11 -13 -21 3 -10 15 -52 28 -96 24 -87 45
-108 116 -120 20 -3 73 -28 116 -56 114 -72 151 -75 266 -22 49 22 67 25 160
24 125 -2 163 14 216 91 44 64 79 156 64 171 -20 20 -159 10 -280 -18 -157
-38 -223 -37 -329 2 -109 41 -276 63 -344 45z"/>
<path d="M27712 11798 c-5 -7 -35 -66 -66 -131 l-56 -117 10 -68 c6 -37 15
-71 20 -76 5 -5 35 11 72 38 l63 47 0 149 0 149 -22 -37 c-19 -31 -23 -33 -23
-15 0 12 4 33 10 47 10 28 8 33 -8 14z"/>
</g>
</svg>
